<?xml version="1.0" encoding="utf-8"?>
<!-- Generator: Adobe Illustrator 16.0.4, SVG Export Plug-In . SVG Version: 6.00 Build 0)  -->
<!DOCTYPE svg PUBLIC "-//W3C//DTD SVG 1.1//EN" "http://www.w3.org/Graphics/SVG/1.1/DTD/svg11.dtd">
<svg version="1.1" id="Layer_1" xmlns="http://www.w3.org/2000/svg" xmlns:xlink="http://www.w3.org/1999/xlink" x="0px" y="0px"
	 width="522px" height="149px" viewBox="0 0 522 149" style="enable-background:new 0 0 522 149;" xml:space="preserve">
<style type="text/css">
<![CDATA[
	.st0{fill:#919396;}
	.st1{fill-rule:evenodd;clip-rule:evenodd;fill:#919396;}
]]>
</style>
<g>
	<rect x="29.898" y="63.694" class="st1" width="8.013" height="34.523"/>
	<rect x="256.108" y="56.667" class="st1" width="8.022" height="41.551"/>
	<polygon class="st1" points="489.568,40.869 484.862,40.869 467.581,98.058 472.367,98.058 	"/>
	<polygon class="st1" points="398.146,40.869 393.398,40.869 376.167,98.058 380.958,98.058 	"/>
	<path class="st0" d="M498.188,45.87h1.173c0.189,0,0.358-0.015,0.519-0.029c0.15-0.031,0.289-0.072,0.419-0.135
		c0.109-0.058,0.2-0.154,0.259-0.273c0.064-0.12,0.089-0.285,0.089-0.482c0-0.182-0.049-0.332-0.123-0.428
		c-0.086-0.105-0.18-0.182-0.324-0.245c-0.135-0.062-0.275-0.097-0.439-0.125c-0.169-0.02-0.329-0.03-0.463-0.03h-1.108V45.87
		L498.188,45.87z M496.868,43.098h2.493c0.838,0,1.476,0.145,1.934,0.441c0.444,0.294,0.669,0.806,0.669,1.521
		c0,0.304-0.051,0.563-0.14,0.785c-0.085,0.218-0.209,0.394-0.369,0.528c-0.16,0.141-0.34,0.242-0.554,0.32
		c-0.204,0.072-0.442,0.12-0.684,0.134l1.771,2.897h-1.376l-1.604-2.831h-0.819v2.831h-1.32V43.098L496.868,43.098z"/>
	<path class="st0" d="M42.522,49.887c0-4.76-3.859-8.626-8.606-8.626c-4.776,0-8.635,3.866-8.635,8.626
		c0,4.759,3.859,8.618,8.635,8.618C38.663,58.504,42.522,54.646,42.522,49.887z"/>
	<path class="st0" d="M41.79,69.878c0-7.846,6.357-14.203,14.195-14.203c4.194,0,27.224,0,27.224,0v7.496c0,0-21.934,0-27.224,0
		c-3.699,0-6.7,3.007-6.7,6.707v14.215c0,3.71,3.001,6.711,6.7,6.711c5.291,0,27.224,0,27.224,0v7.483c0,0-23.03,0-27.224,0
		c-7.837,0-14.195-6.347-14.195-14.194V69.878z"/>
	<path class="st0" d="M299.223,56.275c7.848,0,14.21,6.352,14.21,14.195c0,4.201,0,27.747,0,27.747h-7.499c0,0,0-22.454,0-27.747
		c0-3.699-3.001-6.699-6.711-6.699h-16.448c-3.715,0-6.717,3-6.717,6.699c0,5.293,0,27.747,0,27.747h-7.494c0,0,0-23.546,0-27.747
		c0-7.843,6.357-14.195,14.211-14.195H299.223z"/>
	<path class="st0" d="M138.693,98.287c-7.838,0-14.19-6.347-14.19-14.194V69.878c0-7.846,6.352-14.203,14.19-14.203h16.523
		c7.853,0,14.205,6.357,14.205,14.203v14.215c0,7.848-6.352,14.194-14.205,14.194H138.693z M155.217,90.804
		c3.709,0,6.711-3.001,6.711-6.711V69.878c0-3.7-3.002-6.707-6.711-6.707h-16.523c-3.701,0-6.702,3.007-6.702,6.707v14.215
		c0,3.71,3.001,6.711,6.702,6.711H155.217z"/>
	<path class="st0" d="M85.832,98.287V69.878c0-7.846,6.362-14.203,14.189-14.203c4.214,0,24.546,0,24.546,0v7.496
		c0,0-19.246,0-24.546,0c-3.689,0-6.701,3.007-6.701,6.707v28.409H85.832z"/>
	<path class="st1" d="M461.562,89.841c0-4.577-3.704-8.276-8.267-8.276c-4.562,0-8.262,3.7-8.262,8.276
		c0,4.558,3.7,8.252,8.262,8.252C457.857,98.093,461.562,94.399,461.562,89.841z"/>
	<path class="st1" d="M441.155,89.841c0-4.577-3.686-8.276-8.259-8.276c-4.556,0-8.265,3.7-8.265,8.276
		c0,4.558,3.709,8.252,8.265,8.252C437.47,98.093,441.155,94.399,441.155,89.841z"/>
	<path class="st1" d="M412.515,61.189c-4.562,0-8.268,3.694-8.268,8.267c0,4.561,3.705,8.27,8.268,8.27
		c4.567,0,8.267-3.709,8.267-8.27C420.781,64.884,417.082,61.189,412.515,61.189z"/>
	<path class="st1" d="M412.515,81.564c-4.562,0-8.268,3.7-8.268,8.276c0,4.558,3.705,8.252,8.268,8.252
		c4.567,0,8.267-3.694,8.267-8.252C420.781,85.264,417.082,81.564,412.515,81.564z"/>
	<path class="st1" d="M461.562,49.059c0-4.57-3.704-8.263-8.267-8.263c-4.562,0-8.262,3.693-8.262,8.263
		c0,4.561,3.7,8.262,8.262,8.262C457.857,57.321,461.562,53.62,461.562,49.059z"/>
	<path class="st1" d="M499.267,52.322c-3.256,0-5.904-2.648-5.904-5.918c0-3.253,2.648-5.904,5.904-5.904
		c3.271,0,5.908,2.65,5.908,5.904C505.175,49.674,502.537,52.322,499.267,52.322z M503.868,46.404c0-2.541-2.054-4.595-4.602-4.595
		c-2.527,0-4.592,2.054-4.592,4.595c0,2.545,2.064,4.614,4.592,4.614C501.814,51.018,503.868,48.949,503.868,46.404z"/>
	<path class="st1" d="M441.155,49.059c0-4.57-3.686-8.263-8.259-8.263c-4.556,0-8.265,3.693-8.265,8.263
		c0,4.561,3.709,8.262,8.265,8.262C437.47,57.321,441.155,53.62,441.155,49.059z"/>
	<path class="st1" d="M412.515,40.796c-4.562,0-8.268,3.693-8.268,8.263c0,4.561,3.705,8.262,8.268,8.262
		c4.567,0,8.267-3.701,8.267-8.262C420.781,44.489,417.082,40.796,412.515,40.796z"/>
	<path class="st0" d="M322.682,105.129h24.925c3.71,0,6.711-3.001,6.711-6.701v-28.55c0-3.7-3.001-6.707-6.711-6.707h-15.686
		c-3.71,0-6.701,3.007-6.701,6.707v14.215c0,3.71,2.991,6.711,6.701,6.711h17.76v7.483h-17.76c-7.838,0-14.195-6.347-14.195-14.194
		V69.878c0-7.846,6.357-14.203,14.195-14.203h15.686c7.839,0,14.2,6.357,14.2,14.203v28.55c0,7.848-6.361,14.189-14.2,14.189
		h-24.925V105.129z"/>
	<path class="st0" d="M200.919,72.804c7.209,0,11.039,6.938,11.039,12.65c0,5.714-3.251,12.615-10.655,12.615
		c-7.419,0-27.926,0-27.926,0v-7.948c0,0,25.409,0,27.313,0c1.875,0,3.246-1.735,3.246-4.498c0-2.752-1.371-4.776-3.365-4.776
		l-17.85-0.009c-7.19,0-11.029-6.931-11.029-12.652c0-5.721,3.236-12.612,10.66-12.612c7.415,0,27.922,0,27.922,0v7.944
		c0,0-25.423,0-27.303,0c-1.895,0-3.251,1.748-3.251,4.5c0,2.751,1.356,4.781,3.371,4.781L200.919,72.804z"/>
	<path class="st0" d="M241.375,72.804c7.21,0,11.028,6.938,11.028,12.65c0,5.714-3.235,12.615-10.654,12.615
		c-7.414,0-27.917,0-27.917,0v-7.948c0,0,25.418,0,27.294,0c1.894,0,3.261-1.735,3.261-4.498c0-2.752-1.367-4.776-3.371-4.776
		l-17.826-0.009c-7.205,0-11.044-6.931-11.044-12.652c0-5.721,3.236-12.612,10.656-12.612c7.429,0,27.921,0,27.921,0v7.944
		c0,0-25.414,0-27.308,0c-1.885,0-3.246,1.748-3.246,4.5c0,2.751,1.361,4.781,3.376,4.781L241.375,72.804z"/>
</g>
</svg>
